<svg width="14" height="16" viewBox="0 0 14 16" fill="none" xmlns="http://www.w3.org/2000/svg">
<path d="M10.0788 0C10.1161 0 10.1533 0 10.1926 0C10.284 1.12836 9.85329 1.97146 9.32986 2.58201C8.81627 3.18834 8.11298 3.77641 6.97549 3.68718C6.89961 2.57498 7.331 1.79441 7.85373 1.18527C8.33851 0.617575 9.22729 0.112414 10.0788 0Z" fill="#030712"/>
<path d="M13.5218 11.7445C13.5218 11.7557 13.5218 11.7656 13.5218 11.7761C13.2021 12.7443 12.7461 13.574 12.1897 14.344C11.6817 15.0431 11.0592 15.9839 9.94772 15.9839C8.98728 15.9839 8.34933 15.3663 7.36501 15.3495C6.32377 15.3326 5.75116 15.8659 4.79916 16C4.69025 16 4.58135 16 4.47456 16C3.77549 15.8989 3.21131 15.3452 2.80029 14.8464C1.58833 13.3724 0.651781 11.4684 0.477539 9.03178C0.477539 8.7929 0.477539 8.55473 0.477539 8.31585C0.551311 6.57202 1.39863 5.1542 2.52488 4.46707C3.11927 4.10172 3.93638 3.79048 4.84623 3.92959C5.23617 3.99001 5.63453 4.1235 5.98372 4.25559C6.31464 4.38276 6.72846 4.60829 7.12051 4.59635C7.38608 4.58862 7.65026 4.45021 7.91794 4.35255C8.70203 4.06941 9.47066 3.74481 10.4838 3.89727C11.7014 4.08135 12.5656 4.62234 13.0995 5.45702C12.0695 6.11253 11.2552 7.10037 11.3943 8.78728C11.518 10.3196 12.4089 11.2161 13.5218 11.7445Z" fill="#030712"/>
</svg>
